/* XPM */
static char * about_xpm[] = {
"16 16 3 1",
" 	c none",
".	c #000000000000",
"X	c #9E79FFFF9E79",
"       ...      ",
"     ..XXX..    ",
"    .XXXXXXX.   ",
"    .XX...XX.   ",
"   .XX.   .XX.  ",
"   .XX.   .XX.  ",
"    ..   .XX.   ",
"        .XXX.   ",
"       .XXX.    ",
"       .XX.     ",
"      .XX.      ",
"      .XX.      ",
"      ....      ",
"      .XX.      ",
"      .XX.      ",
"       ..       "};
