/* XPM */
static char * up_xpm[] = {
"16 16 5 1",
" 	c none",
".	c #000000000000",
"X	c #9E79FFFF9E79",
"o	c #FFFFFFFFFFFF",
"O	c #000082070000",
"                ",
"                ",
"                ",
"                ",
"   ...          ",
"  .XoX.         ",
" .............  ",
" .oXoXoXoXoXoO. ",
" .XoXo..XoXoXO. ",
" .oXo....XoXoO. ",
" .Xo......XoXO. ",
" .oXoX..oXoXoO. ",
" .XoXo..XoXoXO. ",
" .OOOOOOOOOOOO. ",
" .............  ",
"                "};
