#define dskfile_width 16
#define dskfile_height 16
static unsigned char dskfile_bits[] = {
  0x00, 0x00, 0x00, 0x00, 0xe0, 0x3f, 0x30, 0x20, 0xb8, 0x2f, 0x88, 0x2e,
  0xe8, 0x2e, 0xe8, 0x2f, 0xe8, 0x2e, 0xe8, 0x2f, 0xa8, 0x2a, 0x68, 0x2d,
  0x08, 0x20, 0xf8, 0x3f, 0x00, 0x00, 0x00, 0x00, };
