#define file_width 16
#define file_height 16
static unsigned char file_bits[] = {
  0x00, 0x00, 0x00, 0x00, 0xc0, 0x3f, 0x60, 0x20, 0x50, 0x20, 0x78, 0x20,
  0x08, 0x20, 0x08, 0x20, 0x08, 0x20, 0x08, 0x20, 0x08, 0x20, 0x08, 0x20,
  0x08, 0x20, 0xf8, 0x3f, 0x00, 0x00, 0x00, 0x00, };
