#define fixdsk_width 16
#define fixdsk_height 16
static unsigned char fixdsk_bits[] = {
  0x00, 0x00, 0x00, 0x00, 0x00, 0x00, 0x00, 0x00, 0x00, 0x00, 0x00, 0x00,
  0xfc, 0x7f, 0x04, 0x40, 0x04, 0x40, 0x04, 0x40, 0xa4, 0x5a, 0x54, 0x59,
  0x04, 0x40, 0xfc, 0x7f, 0x00, 0x00, 0x00, 0x00, };
