#define floppy_width 16
#define floppy_height 16
static unsigned char floppy_bits[] = {
  0x00, 0x00, 0x00, 0x00, 0xf8, 0x1f, 0xb4, 0x3a, 0x2c, 0x28, 0xb4, 0x3a,
  0xec, 0x2f, 0x54, 0x35, 0xec, 0x2f, 0x14, 0x38, 0x1c, 0x28, 0x14, 0x38,
  0x1c, 0x28, 0xf8, 0x1f, 0x00, 0x00, 0x00, 0x00, };
