#define folder_width 16
#define folder_height 16
static unsigned char folder_bits[] = {
  0x00, 0x00, 0x00, 0x00, 0x00, 0x3c, 0x00, 0x56, 0xfc, 0x7f, 0x56, 0x55,
  0xaa, 0x6a, 0x56, 0x55, 0xaa, 0x6a, 0x56, 0x55, 0xaa, 0x6a, 0x56, 0x55,
  0xfe, 0x7f, 0x00, 0x00, 0x00, 0x00, 0x00, 0x00, };
