/* XPM */
static char *pcw_xpm[] = {
/* width height num_colors chars_per_pixel */
"    32    32       12            1",
/* colors */
". c #ffffff",
"# c #cccccc",
"a c #99ff99",
"b c Gray100",
"c c #550000",
"d c #bbbbbb",
"e c #888888",
"f c #777777",
"g c #555555",
"h c #444444",
"i c #222222",
"j c #000000",
/* pixels */
"bbbbbbbbbbbbbbbbbbbbbbbbbbbbbbbb",
"bbbbbbbbbbbbbbbbbbbbbbbbbbbbbbbb",
"bbbbbbbbbbbbbbbbbbbbbbbbbbbbbbbb",
"bbbjjjjjjjjjjjjjjjjjjjjjjjjjjbbb",
"bbj##########################jbb",
"bbj##hhhhhhhhhhhhhhhhhhh#####jbb",
"bbj#haaaaaaaaaaaaaaaaaaa.#jj#jbb",
"bbj#haaaaaaaaaaaaaaaaaaa.#jj#jbb",
"bbj#haaaaaaaaaaaaaaaaaaa.#jj#jbb",
"bbj#haaaaaaaaaaaaaaaaaaa.#jj#jbb",
"bbj#haaaaaaaaaaaaaaaaaaa.#jj#jbb",
"bbj#haaaaaaaaaaaaaaaaaaa.#jj#jbb",
"bbj#haaaaaaaaaaaaaaaaaaa.####jbb",
"bbj#haaaaaaaaaaaaaaaaaaa.#jj#jbb",
"bbj#haaaaaaaaaaaaaaaaaaa.#jj#jbb",
"bbj#haaaaaaaaaaaaaaaaaaa.#jj#jbb",
"bbj#haaaaaaaaaaaaaaaaaaa.#jj#jbb",
"bbj#haaaaaaaaaaaaaaaaaaa.#jj#jbb",
"bbj#haaaaaaaaaaaaaaaaaaa.#jj#jbb",
"bbj##...................#####jbb",
"bbj##########################jbb",
"bbj#########dcccdd###########jbb",
"bbj##########################jbb",
"bbbjjjjjjjjjjjjjjjjjjjjjjjjjjbbb",
"bbbbbbbbbbbjhgfeefghjbbbbbbbbbbb",
"bbbbbbbbbbbjhgfeefghjbbbbbbbbbbb",
"bbjiiiiiiiiiiiiiiiiiiiiiiiiiijbb",
"bbjjjjjjjjjjjjjjjjjjjjjjjjjjjjbb",
"bbbbbbbbbbbbbbbbbbbbbbbbbbbbbbbb",
"bbbbbbbbbbbbbbbbbbbbbbbbbbbbbbbb",
"bbbbbbbbbbbbbbbbbbbbbbbbbbbbbbbb",
"bbbbbbbbbbbbbbbbbbbbbbbbbbbbbbbb"
};
