#define up_width 16
#define up_height 16
static unsigned char up_bits[] = {
  0x00, 0x00, 0x00, 0x00, 0x00, 0x3c, 0x00, 0x42, 0xfc, 0x7f, 0x82, 0x40,
  0xc2, 0x41, 0xe2, 0x43, 0x82, 0x40, 0x82, 0x40, 0x82, 0x40, 0x02, 0x40,
  0xfe, 0x7f, 0x00, 0x00, 0x00, 0x00, 0x00, 0x00, };
