/* XPM */
static const char *  dsktool48_xpm[] = {
"48 48 8 1",
" 	c None",
".	c #800000",
"+	c #FFFFFF",
"@	c #C0C0C0",
"#	c #000000",
"$	c #808080",
"%	c #000080",
"&	c #0000FF",
"                                                ",
"                                                ",
"  ........................                      ",
"  ...............++++++++.                      ",
"  ...............++++++++.                      ",
"  ...............++++++++.                      ",
"  ...............++++++++.                      ",
"  ...............++++++++.                      ",
"  ........................                      ",
"  ........................                      ",
"  ........................                      ",
"  ...........   ..........                      ",
"  ..........     .........                      ",
"  ..........     .........                      ",
"  ..........     .........                      ",
"  ...........   ..........                      ",
"  ........................                      ",
"  ........................                      ",
"  ............@...........                      ",
"  ...........@@@......###########$              ",
"  ...........@@@.....######@######              ",
"  ...........@@@.....######@######              ",
"  ...........@@@.....######@######              ",
"  ...........@@@.....######@######              ",
"  ............@......#############              ",
"  ...................######$######              ",
"                     #####+++#####              ",
"                     ####$+++$####              ",
"                     #####+++#####              ",
"                     ######$######              ",
"                     ########%%%&&&@@@@@@@%     ",
"                     #@++++++%%%&&&@@@@%%@%%    ",
"                     #+++++++%%%&&&@@@@%%@%%%   ",
"                     #+++++++%%%&&&@@@@%%@%%%   ",
"                     #+++++++%%%&&&$@@@@@$%%%   ",
"                     #+++++++%%%%%%%%%%%%%%%%   ",
"                     $#######%%%%%%%%%%%%%%%%   ",
"                             %%%%%%%%%%%%%%%%   ",
"                             %%@++++++++++@%%   ",
"                             %%++++++++++++%%   ",
"                             %%++++++++++++%%   ",
"                             %%++++++++++++%%   ",
"                             %%++++++++++++%%   ",
"                             %%++++++++++++%%   ",
"                             %&++++++++++++&%   ",
"                             %%%%%%%%%%%%%%%%   ",
"                                                ",
"                                                "};
