/* XPM */
static char * drive_small_xpm[] = {
"16 16 16 1",
" 	c #861782078617",
".	c #000000000000",
"X	c none",
"o	c #EFBEEFBEEFBE",
"O	c #DF7DDF7DDF7D",
"+	c #BEFBBAEABEFB",
"@	c #AEBAAAAAAEBA",
"#	c #208120812081",
"$	c #8E388A288E38",
"%	c #514455555144",
"&	c #71C675D671C6",
"*	c #410345144103",
"=	c #FFFFFFFFFFFF",
"-	c #000055550000",
";	c #CF3CFFFF9E79",
":	c #9E79FFFF9E79",
" ..............X",
".oOOooO+@OO##o .",
".oOOoO+@$OO%#oo.",
".oOOO+@$&OO$#oo.",
".oOO+@$&%OO+#oo.",
".oOO@$&%*==o#oo.",
".oooooooooooooo.",
".o$$$$$$$$$$$$o.",
".oo===========+.",
".oo--==--=-=-=+.",
".oo-;--;;;-;-;+.",
".oo--=-===---=+.",
".oo-===--=-=-=+.",
".oo;;;;;;;;;;;+.",
"..o===========+.",
".oo:::::::::::+."};
