/* XPM */
static char * drive_xpm[] = {
"32 32 16 1",
" 	c none",
".	c #000000000000",
"X	c #EFBEEFBEEFBE",
"o	c #514455555144",
"O	c #DF7DDF7DDF7D",
"+	c #FFFFFFFFFFFF",
"@	c #BEFBBAEABEFB",
"#	c #AEBAAAAAAEBA",
"$	c #208120812081",
"%	c #104010401040",
"&	c #410345144103",
"*	c #8E388A288E38",
"=	c #71C675D671C6",
"-	c #CF3CFFFF9E79",
";	c #000055550000",
":	c #9E79FFFF9E79",
" ............................   ",
".XXoOOO+XXXXOO@@##$$$%%$$@XXX.  ",
".XXoOOO+XXXOO@@##$OOO+$&$@XXXX. ",
".XXoOOO+XXOO@@##*$OOO+&o$@XXXXX.",
".XXoOOO+XOO@@##**$OOO+o=$@XXXXX.",
".XXoOOO+OO@@##**=$OOO+=*$@XXXXX.",
".XXoOOO+O@@##**==$OOO+*#$@XXXXX.",
".XXoOOO+@@##**==o$OOO+#@$@XXXXX.",
".XXoOOO+@##**==oo$OOO+@O$@XXXXX.",
".XXoOOO+##**==oo&$OOO+OX$@XXXXX.",
".XX&OOO+#**==oo&&$++++X+$@XXXXX.",
".XXXOOOO$$$$$$$$$$$$$$$$$@XXXXX.",
".XXXXXXXXXXXXXXXXXXXXXXXXXXXXXX.",
".XXXXXXXXXXXXXXXXXXXXXXXXXXXXXX.",
".XXX************************XXX.",
".XXoXXXXXXXXXXXXXXXXXXXXXXXX@XX.",
".XXoX++++++++++++++++++++++X@XX.",
".XXoX----------------------X@XX.",
".XXoX;;;;;+++;;;;++;;+++;;+X@XX.",
".XXoX;;++;;+;;++;;+;;+++;;+X@XX.",
".XXoX;;--;;-;;-----;;---;;-X@XX.",
".XXoX;;;;;++;;+++++;;+++;;+X@XX.",
".XXoX;;+++++;;+++++;;+;+;;+X@XX.",
".XXoX;;-----;;--;;-;;;-;;;-X@XX.",
".XXoX;;++++++;;;;++;;+++;;+X@XX.",
".XXoX++++++++++++++++++++++X@XX.",
".XXoX----------------------X@XX.",
".X..X++++++++++++++++++++++X@XX.",
".X..X++++++++++++++++++++++X@XX.",
".XO=X::::::::::::::::::::::X@XX.",
".XX=X::::::::::::::::::::::X@XX.",
" .............................. "};
