/* XPM */
static char*file_basic_small_xpm[]={
"16 16 6 1",
"# c #000000",
"b c #0000c0",
". c None",
"c c #cfcfcf",
"a c #efefef",
"d c #c7c3c7",
".##########.....",
".#aaaaaaaa##....",
".#aabaaaaa#c#...",
".#abbbaaaa####..",
".#aabaabababa#d.",
".#aaaaaaaaaaa#d.",
".#aabaaaaaaaa#d.",
".#abbbaaaaaaa#d.",
".#aabaabababa#d.",
".#aaaaaaaaaaa#d.",
".#aabaaaaaaaa#d.",
".#abbbaaaaaaa#d.",
".#aabaabababa#d.",
".#aaaaaaaaaaa#d.",
".#############d.",
"..ddddddddddddd."};
