/* XPM */
static char*file_png_small_xpm[]={
"16 16 7 1",
"e c #00ff00",
"# c #000000",
". c None",
"b c #cfcfcf",
"a c #c0ffff",
"c c #c7c3c7",
"d c #ff0000",
".##########.....",
".#aaaaaaaa##....",
".#aaaaaaaa#b#...",
".#aaaaaaaa####..",
".#aaaaaaaaaaa#c.",
".#aaaaaaaaaaa#c.",
".#addadadadda#c.",
".#addadddadaa#c.",
".#adaadddadaa#c.",
".#edeedddedde#c.",
".#edeedededde#c.",
".#eeeeeeeeeee#c.",
".#eeeeeeeeeee#c.",
".#eeeeeeeeeee#c.",
".#############c.",
"..ccccccccccccc."};
