/* XPM */
static char*file_cut_xpm[]={
"32 32 10 1",
"h c #a0a0a0",
"e c #c3c3c3",
"g c #dcdcdc",
"c c #8682ff",
"# c #000000",
". c None",
"b c #cfcfcf",
"a c #efefef",
"f c #c7c3c7",
"d c #ff0000",
"....###################.........",
"....#aaaaaaaaaaaaaaaaa##........",
"....#aaaaaaaaaaaaaaaaa#b#.......",
"....#aaaaaaaaaaaaaaaaa#bb#......",
"....#aaaaaaaaaaaaaaaaa#bbb#.....",
"....#aaaaaaaaaaaaaaaaa#bbbb#....",
"....#aaaaaaaaacccccccc#######...",
"....#aaaadaaaaceeeedeeeeeeee#f..",
"....#aaaaadaaaceeedeeeeeeeee#f..",
"....#aaaaadaaacgeedeeeeeeeee#f..",
"....#aaaaaadaacgedgeeeeeeeee#f..",
"....#aaaaaadaacgedeeeeeeeeee#f..",
"....#aaaaaaadacgdgeegeeeeeee#f..",
"....#aaaaaaadacgdgegeefeeeee#f..",
"....#aaaaaaaadcdgggeeefeeeee#f..",
"....#aaaaaaaadcdgggggeeeeeee#f..",
"....#aaaaaaaaadhhhhhhhhhhhhh#f..",
"....#aaaaaaaadcdhhhhhhhhhhhh#f..",
"....#aaaaaaaadcdhhhhhhhhhhhh#f..",
"....#aaaaaaddachddhhhhhhhhhh#f..",
"....#aaadddadachdhdddhhhhhhh#f..",
"....#aadaadadachdhdhhdhhhhhh#f..",
"....#adaaaadaachhdhhhhdhhhhh#f..",
"....#adaaaadaachhdhhhhdhhhhh#f..",
"....#adaaaadaachhdhhhhdhhhhh#f..",
"....#aadaadaaachhhdhhdhhhhhh#f..",
"....#aaaddaaaachhhhddhhhhhhh#f..",
"....#aaaaaaaaacccccccccccccc#f..",
"....#aaaaaaaaaaaaaaaaaaaaaaa#f..",
"....#aaaaaaaaaaaaaaaaaaaaaaa#f..",
"....#########################f..",
".....fffffffffffffffffffffffff.."};
