/* XPM */
static char*file_png_xpm[]={
"32 32 9 1",
"f c #00ff00",
"g c #c05800",
"# c #000000",
"e c #ffff00",
". c None",
"b c #cfcfcf",
"a c #c0ffff",
"c c #c7c3c7",
"d c #ff0000",
"....###################.........",
"....#aaaaaaaaaaaaaaaaa##........",
"....#aaaaaaaaaaaaaaaaa#b#.......",
"....#aaaaaaaaaaaaaaaaa#bb#......",
"....#aaaaaaaaaaaaaaaaa#bbb#.....",
"....#aaaaaaaaaaaaaaaaa#bbbb#....",
"....#aaaaaaaaaaaaaaaaa#######...",
"....#aaaaaaaaaaaaaaaaaaaaaaa#c..",
"....#aaaddddaaddaaddaadddaaa#c..",
"....#aaaddaddaddaaddaddaddaa#c..",
"....#aaaddaddadddaddaddaaaaa#c..",
"....#aaaddddaaddddddaddaddaa#c..",
"....#aaaddaaaaddadddaddaddaa#c..",
"....#aaaddaaeaddaeddeddaddaa#c..",
"....#aaaddaaaeddeeddaadddaaa#c..",
"....#aaaaaeaaaeeeeeaaaeaaaaa#c..",
"....#aaaaaaeaeeeeeeeaeaaaaaa#c..",
"....#aaaaaaaeeeeeeeeeaaaaaaa#c..",
"....#aaaaaeeeeeeeeeeeeeaaaaa#c..",
"....#ffffffffffggfffffffffff#c..",
"....#fffffffffgggfffffffffff#c..",
"....#ffffffffgggffffffffffff#c..",
"....#fffffffffggggffffffffff#c..",
"....#ffffffffffggggfffffffff#c..",
"....#fffffffffgggggggfffffff#c..",
"....#ffffffffggggggggfffffff#c..",
"....#fffffffggggggggggffffff#c..",
"....#ffffffgggggggggggffffff#c..",
"....#ffffffggggggggggggfffff#c..",
"....#fffffgggggggggggggfffff#c..",
"....#########################c..",
".....ccccccccccccccccccccccccc.."};
