/* XPM */
static char*file_mvg_small_xpm[]={
"16 16 9 1",
"g c #a0a0a0",
"f c #c3c3c3",
"d c #c0c0ff",
"# c #000000",
". c None",
"b c #cfcfcf",
"c c #c7c3c7",
"a c #ffffff",
"e c #ff0000",
".##########.....",
".#aaaaaaaa##....",
".#aaaaaaaa#b#...",
".#aaaaaaaa####..",
".#aaaaaaaaaaa#c.",
".#ddddddddddd#c.",
".#defefeefeed#c.",
".#deeefeefefd#c.",
".#deeefeefefd#c.",
".#degegeegeed#c.",
".#degegeggeed#c.",
".#ddddddddddd#c.",
".#aaaaaaaaaaa#c.",
".#aaaaaaaaaaa#c.",
".#############c.",
"..ccccccccccccc."};
