/* XPM */
static char*file_txt_small_xpm[]={
"16 16 6 1",
"# c #000000",
". c None",
"b c #800000",
"c c #cfcfcf",
"a c #efefef",
"d c #c7c3c7",
".##########.....",
".#aaaaaaaa##....",
".#abbbbbba#c#...",
".#aaaaaaaa####..",
".#abbbbbbaaaa#d.",
".#aaaaaaaaaaa#d.",
".#abbbbbbbbba#d.",
".#aaaaaaaaaaa#d.",
".#abbbbbaaaaa#d.",
".#aaaaaaaaaaa#d.",
".#abbbbabbbba#d.",
".#aaaaaaaaaaa#d.",
".#abbbbbbaaaa#d.",
".#aaaaaaaaaaa#d.",
".#############d.",
"..ddddddddddddd."};
