/* XPM */
static char * file_small_xpm[] = {
"16 16 5 1",
" 	c #ccccddddeeee",
".	c #000000000000",
"X	c #EFBEEFBEEFBE",
"o	c #CF3CCF3CCF3C",
"O	c #C71BC30BC71B",
" ..........     ",
" .XXXXXXXX..    ",
" .XXXXXXXX.o.   ",
" .XXXXXXXX....  ",
" .XXXXXXXXXXX.O ",
" .XXXXXXXXXXX.O ",
" .XXXXXXXXXXX.O ",
" .XXXXXXXXXXX.O ",
" .XXXXXXXXXXX.O ",
" .XXXXXXXXXXX.O ",
" .XXXXXXXXXXX.O ",
" .XXXXXXXXXXX.O ",
" .XXXXXXXXXXX.O ",
" .XXXXXXXXXXX.O ",
" .............O ",
"  OOOOOOOOOOOOO "};
