/* XPM */
static char * file_logo_xpm[] = {
"32 32 9 1",
" 	c none",
".	c #000000000000",
"X	c #EFBEEFBEEFBE",
"o	c #CF3CCF3CCF3C",
"O	c #86178207FFFF",
"+	c #FFFF00000000",
"@	c #C71BC30BC71B",
"#	c #DF7DDF7DDF7D",
"$	c #A699A289A699",
"    ...................         ",
"    .XXXXXXXXXXXXXXXXX..        ",
"    .XXXXXXXXXXXXXXXXX.o.       ",
"    .XXXXXXXXXXXXXXXXX.oo.      ",
"    .XXXXXXXXXXXXXXXXX.ooo.     ",
"    .XXXXXXXXXXXXXXXXX.oooo.    ",
"    .XXXXXXXXXOOOOOOOO.......   ",
"    .XXXXXXXXX+@@@@@@@@@@@@@.@  ",
"    .XXXXXXXXX+@@@@@@@@@@@@@.@  ",
"    .XXXXXXXX+O+@@@@@@@@@@@@.@  ",
"    .XXXXXXXX+O+@@#@@@@@@@@@.@  ",
"    .XXXXXXX+XO#+#@@@@@@@@@@.@  ",
"    .XXXXXXX+XO#+@@@#@@@@@@@.@  ",
"    .XXXXXX+XXO##+@#@@@@@@@@.@  ",
"    .XXXXXX+XXO##+#@@@@@@@@@.@  ",
"    .XXXXX+XXXO###+##@@@@@@@.@  ",
"    .XXXXX+XXXO$$$+$$$$$$$$$.@  ",
"    .XXXX+XXXXO$$$$+$$$$$$$$.@  ",
"    .XXXX+XXXX+$$$$+$$$$$$$$.@  ",
"    .XXX+XXX++O++$$$+$$$$$$$.@  ",
"    .XXX+X++XXO$$+$$+$$$$$$$.@  ",
"    .XX+X+XXXXO$$$++$+$$$$$$.@  ",
"    .XX++XXXXXO$$$$$++$$$$$$.@  ",
"    .X+XXXXXXXO$$$$$$$+$$$$$.@  ",
"    .XXXXXXXXXO$$$$$$$$$$$$$.@  ",
"    .XXXXXXXXXO$$$$$$$$$$$$$.@  ",
"    .XXXXXXXXXO$$$$$$$$$$$$$.@  ",
"    .XXXXXXXXXOOOOOOOOOOOOOO.@  ",
"    .XXXXXXXXXXXXXXXXXXXXXXX.@  ",
"    .XXXXXXXXXXXXXXXXXXXXXXX.@  ",
"    .........................@  ",
"     @@@@@@@@@@@@@@@@@@@@@@@@@  "};
