/* XPM */
static char*file_basic_xpm[]={
"32 32 6 1",
"# c #000000",
"b c #0000c0",
". c None",
"c c #cfcfcf",
"a c #efefef",
"d c #c7c3c7",
"....###################.........",
"....#aaaaaaaaaaaaaaaaa##........",
"....#aaabaaaaaaaaaaaaa#c#.......",
"....#aabbbaaaaaaaaaaaa#cc#......",
"....#abbbbbaaaaaaaaaaa#ccc#.....",
"....#aabbbaaaaaaaaaaaa#cccc#....",
"....#aaabaaabababababa#######...",
"....#aaaaaaaaaaaaaaaaaaaaaaa#d..",
"....#aaaaaaaaaaaaaaaaaaaaaaa#d..",
"....#aaabaaaaaaaaaaaaaaaaaaa#d..",
"....#aabbbaaaaaaaaaaaaaaaaaa#d..",
"....#abbbbbaaaaaaaaaaaaaaaaa#d..",
"....#aabbbaaaaaaaaaaaaaaaaaa#d..",
"....#aaabaaababababababababa#d..",
"....#aaaaaaaaaaaaaaaaaaaaaaa#d..",
"....#aaaaaaaaaaaaaaaaaaaaaaa#d..",
"....#aaabaaaaaaaaaaaaaaaaaaa#d..",
"....#aabbbaaaaaaaaaaaaaaaaaa#d..",
"....#abbbbbaaaaaaaaaaaaaaaaa#d..",
"....#aabbbaaaaaaaaaaaaaaaaaa#d..",
"....#aaabaaababababababababa#d..",
"....#aaaaaaaaaaaaaaaaaaaaaaa#d..",
"....#aaaaaaaaaaaaaaaaaaaaaaa#d..",
"....#aaabaaaaaaaaaaaaaaaaaaa#d..",
"....#aabbbaaaaaaaaaaaaaaaaaa#d..",
"....#abbbbbaaaaaaaaaaaaaaaaa#d..",
"....#aabbbaaaaaaaaaaaaaaaaaa#d..",
"....#aaabaaababababababababa#d..",
"....#aaaaaaaaaaaaaaaaaaaaaaa#d..",
"....#aaaaaaaaaaaaaaaaaaaaaaa#d..",
"....#########################d..",
".....ddddddddddddddddddddddddd.."};
