/* XPM */
static char*file_sub_small_xpm[]={
"16 16 7 1",
"b c #008000",
"# c #000000",
". c None",
"c c #cfcfcf",
"e c #0000ff",
"a c #efefef",
"d c #c7c3c7",
".##########.....",
".#aaaaaaaa##....",
".#abbbbbba#c#...",
".#aaaaaaaa####..",
".#abbbbbbaaaa#d.",
".#aaaaaaaaaaa#d.",
".#abbbbbbbbba#d.",
".#aaaaaaaaaaa#d.",
".#aaeeeaaeaaa#d.",
".#aeaaaeaaeaa#d.",
".#aeeeeeaaaea#d.",
".#aeaaaeaaeaa#d.",
".#aeaaaeaeaaa#d.",
".#aaaaaaaaaaa#d.",
".#############d.",
"..ddddddddddddd."};
