/* XPM */
static char*file_sub_xpm[]={
"32 32 7 1",
"b c #008000",
"# c #000000",
". c None",
"c c #cfcfcf",
"e c #0000ff",
"a c #efefef",
"d c #c7c3c7",
"....###################.........",
"....#aaaaaaaaaaaaaaaaa##........",
"....#abbbbbbbbaaaaaaaa#c#.......",
"....#aaaaaaaaaaaaaaaaa#cc#......",
"....#aaaaaaaaaaaaaaaaa#ccc#.....",
"....#abbbbbbbbbbbbaaaa#cccc#....",
"....#aaaaaaaaaaaaaaaaa#######...",
"....#abbbbbbabbbbaaaaaaaaaaa#d..",
"....#aaaaaaaaaaaaaaaaaaaaaaa#d..",
"....#abbbbbbbbbbbbbbbabbbbaa#d..",
"....#aaaaaaaaaaaaaaaaaaaaaaa#d..",
"....#abbbbbabbbbbbbbabbbbbaa#d..",
"....#aaaaaaaaaaaaaaaaaaaaaaa#d..",
"....#aaaaaaaaaaaaaaaaaaaaaaa#d..",
"....#abbbbbbbabbbbbbbbabbbaa#d..",
"....#aaaaaaaaaaaaaaaaaaaaaaa#d..",
"....#abbbbbbbbbabbbbbbbbbbaa#d..",
"....#aaaaaaaaaaaaaaaaaaaaaaa#d..",
"....#abbbbbbbabbbbbbbabbbbaa#d..",
"....#aaaaaaaaaaaaaaaaaaaaaaa#d..",
"....#aaaaaaaaaaaaabbbbbbaaaa#d..",
"....#aaeeeeaaeeaaaaaaaaaaaaa#d..",
"....#aeeaaeeaaeeaaaaaaaaaaaa#d..",
"....#aeeaaeeaaaeeaabbbaaaaaa#d..",
"....#aeeeeeeaaaaeeaaaaaaaaaa#d..",
"....#aeeaaeeaaaeeaabbbbbbaaa#d..",
"....#aeeaaeeaaeeaaaaaaaaaaaa#d..",
"....#aeeaaeeaeeaabbabbbbaaaa#d..",
"....#aaaaaaaaaaaaaaaaaaaaaaa#d..",
"....#aaaaaaaaaaaaaaaaaaaaaaa#d..",
"....#########################d..",
".....ddddddddddddddddddddddddd.."};
