/* XPM */
static char*file_com_small_xpm[]={
"16 16 8 1",
"# c #808080",
"c c #008000",
"b c #a0a0a0",
". c none",
"e c #000000",
"a c #303030",
"f c #efefef",
"d c #ffffff",
"................",
".#############a.",
".#bbbbbbbbbbb#a.",
".#bcccccccccc#a.",
".#bccccdedede#a.",
".#bbbbbbbbbbb#a.",
".#bffffffffff#a.",
".#bffffffffff#a.",
".#bffffffffff#a.",
".#bffffffffff#a.",
".#bffffffffff#a.",
".#bffffffffff#a.",
".#bffffffffff#a.",
".#############a.",
".aaaaaaaaaaaaaa.",
"................"};
