/* XPM */
static char*file_logo_small_xpm[]={
"16 16 11 1",
"h c #a0a0a0",
"e c #c3c3c3",
"b c #8682ff",
"# c #000000",
"g c #303030",
". c None",
"c c #cfcfcf",
"a c #efefef",
"f c #c7c3c7",
"i c #ffffff",
"d c #ff0000",
".##########.....",
".#aaaaaaaa##....",
".#aaaaabb##c#...",
".#aaaaadee####..",
".#aaaaadeeeee#f.",
".#aaaadbdeeee#f.",
".#aaaadbdeeee#f.",
".#aaadabedeee#f.",
".#aaadadedeeegf.",
".#aadadbdhdhh#f.",
".#aaddabhddhh#f.",
".#adaaabhhhdh#f.",
".#aaaaabhhhhh#f.",
".#aiiiibhhhhh#f.",
".#############f.",
"..fffffffffffff."};
