/* XPM */
static char*file_mvg_xpm[]={
"32 32 11 1",
"h c #a0a0a0",
"d c #c3c3c3",
"c c #8682ff",
"# c #000000",
". c None",
"b c #cfcfcf",
"i c #585858",
"a c #efefef",
"e c #c7c3c7",
"g c #dcdcdc",
"f c #ff0000",
"....###################.........",
"....#aaaaaaaaaaaaaaaaa##........",
"....#aaaaaaaaaaaaaaaaa#b#.......",
"....#aaaaaaaaaaaaaaaaa#bb#......",
"....#aaaaaaaaaaaaaaaaa#bbb#.....",
"....#aaaaaaaaaaaaaaaaa#bbbb#....",
"....#acccccccccccccccc#######...",
"....#acdddddddddddddddddddca#e..",
"....#acdfdddfdffddffddfffdca#e..",
"....#acdffdffdffddffdffdffca#e..",
"....#acdfffffdffddffdffdddca#e..",
"....#acdfffffdffddffdffdddca#e..",
"....#acdffdffdffdgffdfffffca#e..",
"....#acdffdffddffffdgffdffca#e..",
"....#acdffdffgddffdgddfffdca#e..",
"....#acdddgdddgggggdddgdddca#e..",
"....#acddddgdgggggggdgddddca#e..",
"....#acdddddgggggggggdddddca#e..",
"....#acdddgggggggggggggdddca#e..",
"....#achhhhhhhhiihhhhhhhhhca#e..",
"....#achhhhhhhiiihhhhhhhhhca#e..",
"....#achhhhhhiiihhhhhhhhhhca#e..",
"....#achhhhhhhiiiihhhhhhhhca#e..",
"....#achhhhhhhhiiiihhhhhhhca#e..",
"....#achhhhhhhiiiiiiihhhhhca#e..",
"....#achhhhhhiiiiiiihhhhhhca#e..",
"....#achhhhhiiiiiiiihhhhhhca#e..",
"....#accccccccccccccccccccca#e..",
"....#aaaaaaaaaaaaaaaaaaaaaaa#e..",
"....#aaaaaaaaaaaaaaaaaaaaaaa#e..",
"....#########################e..",
".....eeeeeeeeeeeeeeeeeeeeeeeee.."};
