/* XPM */
static char*file_mda_xpm[]={
"32 32 9 1",
"c c #009900",
"d c #006600",
"# c #000000",
". c none",
"b c #cfcfcf",
"a c #efefef",
"e c #c7c3c7",
"f c #ffffff",
"g c #ff0000",
"....###################.........",
"....#aaaaaaaaaaaaaaaaa##........",
"....#aaaaaaaaaaaaaaaaa#b#.......",
"....#aaaaaaaaaaaaaaaaa#bb#......",
"....#aaaaaaaaaaaaaaaaa#bbb#.....",
"....#aaaaaaaaaaaaaaaaa#bbbb#....",
"....#aaaaaaaacaccaaaaa#######...",
"....#aaaaaacacdaaacaaaaaaaaa#e..",
"....#aaacaadadcdacdcdaaaaaaa#e..",
"....#aaadcdfdcdccdcdaaaaaaaa#e..",
"....#aaaaacdcdcddcdcdadaaaaa#e..",
"....#aaaaacdcdcddcdaacdaaaaa#e..",
"....#caadcdcdcdccdcdadcdaaaa#e..",
"....#acdcdcfcdcddcdcdcaaaaaa#e..",
"....#aacdcdcdcdccdcdcdcdaaaa#e..",
"....#aaacdcfcdcddcdcfcdcaaaa#e..",
"....#aadcacdcacddcdcdaacdaaa#e..",
"....#aacaaaadadccdcdaaaaaaaa#e..",
"....#aaaaaaaaacddcdcaaaaaaaa#e..",
"....#aaaaaaaaaadaacaaaaaaaaa#e..",
"....#aaaaaaaaadcaaaaaaaaaaaa#e..",
"....#aaaaaaaadcdcaaaaaaaaaaa#e..",
"....#aaaaaaaaaaaaaaaaaaaaaaa#e..",
"....#agggagggaggggaaaaggggaa#e..",
"....#agggggggaggaggaaggaagga#e..",
"....#aggagaggaggaaggaggaagga#e..",
"....#aggaaaggaggaaggagggggga#e..",
"....#aggaaaggaggaggaaggaagga#e..",
"....#aggaaaggaggggaaaggaagga#e..",
"....#aaaaaaaaaaaaaaaaaaaaaaa#e..",
"....#########################e..",
".....eeeeeeeeeeeeeeeeeeeeeeeee.."};
