/* XPM */
static char*file_spc_small_xpm[]={
"16 16 10 1",
"h c #a0a0a0",
"f c #c3c3c3",
"d c #c0c0ff",
"# c #000000",
". c None",
"b c #cfcfcf",
"c c #c7c3c7",
"g c #dcdcdc",
"a c #ffffff",
"e c #ff0000",
".##########.....",
".#aaaaaaaa##....",
".#aaaaaaaa#b#...",
".#aaaaaaaa####..",
".#aaaaaaaaaaa#c.",
".#ddddddddddd#c.",
".#deefeeefeed#c.",
".#deffegefefd#c.",
".#deefeeefefd#c.",
".#dhehehhhehd#c.",
".#deehehhheed#c.",
".#ddddddddddd#c.",
".#aaaaaaaaaaa#c.",
".#aaaaaaaaaaa#c.",
".#############c.",
"..ccccccccccccc."};
