/* XPM */
static char*file_mda_small_xpm[]={
"16 16 17 1",
"e c #0c0c0c",
"g c #008000",
"i c #3ca23c",
"d c #78c478",
"k c #409a40",
"n c #006600",
"# c #000000",
". c none",
"m c #40a640",
"b c #cfcfcf",
"l c #3c963c",
"f c #78b878",
"c c #b4dab4",
"a c #efefef",
"j c #c7c3c7",
"o c #ff0000",
"h c #b4cdb4",
".##########.....",
".#aaaaaaaa##....",
".#aaaaaaaa#b#...",
".#aaaacdaae###..",
".#acafghifaaa#j.",
".#ahikggglhaa#j.",
".#chigggghgha#j.",
".#cggmggggiha#j.",
".#aiimingmfia#j.",
".#ocohoogfaoa#j.",
".#oooaofoaoao#j.",
".#oaoaofoaooo#j.",
".#oaoaooaaoao#j.",
".#aaaaaaaaaaa#j.",
".#############j.",
"..jjjjjjjjjjjjj."};
