/* XPM */
static char*file_cut_small_xpm[]={
"16 16 11 1",
"h c #a0a0a0",
"d c #c3c3c3",
"b c #8682ff",
"# c #000000",
"g c #303030",
". c None",
"c c #cfcfcf",
"a c #efefef",
"e c #c7c3c7",
"i c #ffffff",
"f c #ff0000",
".##########.....",
".#aaaaaaaa##....",
".#aaaaabb##c#...",
".#aaaaabdd####..",
".#aaaaabddddd#e.",
".#aaafabdfddd#e.",
".#aaaffbffddd#e.",
".#aaaafffdddd#e.",
".#aaaaafdddddge.",
".#aafffbfffhh#e.",
".#afaafbfhhfh#e.",
".#afaafbfhhfh#e.",
".#aaffabhffhh#e.",
".#aiiiibhhhhh#e.",
".#############e.",
"..eeeeeeeeeeeee."};
