/* XPM */
static char * folder_xpm[] = {
"32 32 5 1",
" 	c none",
".	c #000000000000",
"X	c #9E79FFFF9E79",
"o	c #FFFFFFFFFFFF",
"O	c #000082070000",
"                                ",
"                                ",
"                                ",
"                                ",
"                                ",
"                                ",
"                                ",
"                                ",
"     .......                    ",
"    .XoXoXoX.                   ",
"   .XoXoXoXoX.                  ",
"  .XoXoXoXoXoX.                 ",
"  ...........................   ",
"  .XoXoXoXoXoXoXoXoXoXoXoXoXO.  ",
"  .oXoXoXoXoXoXoXoXoXoXoXoXoO.  ",
"  .XoXoXoXoXoXoXoXoXoXoXoXoXO.  ",
"  .oXoXoXoXoXoXoXoXoXoXoXoXoO.  ",
"  .XoXoXoXoXoXoXoXoXoXoXoXoXO.  ",
"  .oXoXoXoXoXoXoXoXoXoXoXoXoO.  ",
"  .XoXoXoXoXoXoXoXoXoXoXoXoXO.  ",
"  .oXoXoXoXoXoXoXoXoXoXoXoXoO.  ",
"  .XoXoXoXoXoXoXoXoXoXoXoXoXO.  ",
"  .oXoXoXoXoXoXoXoXoXoXoXoXoO.  ",
"  .XoXoXoXoXoXoXoXoXoXoXoXoXO.  ",
"  .oXoXoXoXoXoXoXoXoXoXoXoXoO.  ",
"  .XoXoXoXoXoXoXoXoXoXoXoXoXO.  ",
"  .oXoXoXoXoXoXoXoXoXoXoXoXoO.  ",
"  .XoXoXoXoXoXoXoXoXoXoXoXoXO.  ",
"  .OOOOOOOOOOOOOOOOOOOOOOOOOO.  ",
"   ..........................   ",
"                                ",
"                                "};
