/* XPM */
static char * pcw_xpm[] = {
"32 32 15 1",
" 	c none",
".	c #000000000000",
"X	c #FFFFFFFFFFFF",
"o	c #0000FFFFFFFF",
"O	c #CF3CCF3CCF3C",
"+	c #410345144103",
"@	c #9E79FFFF9E79",
"#	c #861700000000",
"$	c #FFFF00000000",
"%	c #BEFBBAEABEFB",
"&	c #514400000000",
"*	c #514455555144",
"=	c #71C675D671C6",
"-	c #8E388A288E38",
";	c #208120812081",
"                                ",
"                .......         ",
"              ..XoXoXoX..       ",
"   ...........o.o.o.o.o.o....   ",
"  .OOOOOOOOO.oOoOoOoOoOoOo.OO.  ",
"  .OO++++++.o+o+o+o+o+o+oOo.O.  ",
"  .O+@@@@@@.@o@o@o@o@o@oXo..O.  ",
"  .O+@@@@@.@o@o@o@o@o@o@oOo...  ",
"  .O+@@@@@.o@o@o@o@o@o@oXo.o..  ",
"  .O+@@@@@.@o@o@o@o@o@o@oOo...  ",
"  .O+@@@@@.o@o@o@o@o@o@oXo.o..  ",
"  .O+@@@@@.@o@o@o@o@o@o@oOo...  ",
"  .O+@@@@@.o@o@o@o@o@o@oXoOo..  ",
"  .O+@@@@@@.o@o@o@o@o@o@oOo.O.  ",
"  .O+@@@@@@.@o@o@o@o@o@oXo..O.  ",
"  .O+@@@@@.#.@o@o@o@o@o@oO..O.  ",
"  .O+@@@@.#$#.@o@o@o@o@oX...O.  ",
"  .O+@@@.#$#.@..o@o@o@o..O..O.  ",
"  .O+@@.#$#.@@@@.......@XO..O.  ",
"  .OOX.#$#.XXXXXXXXXXXXXOOOOO.  ",
"  .OO.#$#.OOOOOOOOOOOOOOOOOOO.  ",
"  .O.#$#.OOO%&&&%%OOOOOOOOOOO.  ",
"  ..#$#.OOOOOOOOOOOOOOOOOOOOO.  ",
"  .#$#.......................   ",
" .#$#.     .+*=--=*+.           ",
".#$#.      .+*=--=*+.           ",
".$#.;;;;;;;;;;;;;;;;;;;;;;;;;.  ",
" .............................  ",
"                                ",
"                                ",
"                                ",
"                                "};
