#define joyfont3_width 8
#define joyfont3_height 1024
static unsigned char joyfont3_bits[] = {
  0x00, 0x00, 0x66, 0xdb, 0xdb, 0xdb, 0x66, 0x00, 0x3c, 0x42, 0x81, 0x99,
  0x81, 0x42, 0x3c, 0x00, 0x7f, 0x63, 0x03, 0x03, 0x03, 0x03, 0x03, 0x00,
  0x08, 0x1c, 0x1c, 0x36, 0x36, 0x63, 0x7f, 0x00, 0x3c, 0x42, 0xa5, 0x99,
  0xa5, 0x42, 0x3c, 0x00, 0x00, 0x00, 0x00, 0x24, 0x18, 0x24, 0x00, 0x00,
  0x00, 0x00, 0x18, 0x00, 0x7e, 0x00, 0x18, 0x00, 0x00, 0x00, 0x18, 0x18,
  0x00, 0x66, 0x66, 0x00, 0x7f, 0x36, 0x36, 0x36, 0x36, 0x36, 0x36, 0x00,
  0x18, 0x18, 0x18, 0x18, 0x7e, 0x3c, 0x18, 0x00, 0x7f, 0x63, 0x06, 0x0c,
  0x06, 0x63, 0x7f, 0x00, 0x00, 0x04, 0x06, 0x7f, 0x7f, 0x06, 0x04, 0x00,
  0x00, 0x10, 0x30, 0x7f, 0x7f, 0x30, 0x10, 0x00, 0x00, 0x18, 0x18, 0x7e,
  0x18, 0x18, 0x7e, 0x00, 0x00, 0x24, 0x66, 0xff, 0xff, 0x66, 0x24, 0x00,
  0x3e, 0x63, 0x63, 0x63, 0x63, 0x36, 0x77, 0x00, 0x00, 0x00, 0xce, 0x7b,
  0x33, 0x7b, 0xce, 0x00, 0x3e, 0x63, 0x63, 0x3f, 0x63, 0x63, 0x1f, 0x03,
  0x66, 0x66, 0x3c, 0x66, 0x66, 0x66, 0x3c, 0x00, 0x3c, 0x06, 0x3c, 0x66,
  0x66, 0x66, 0x3c, 0x00, 0x00, 0x00, 0x78, 0x0c, 0x3e, 0x0c, 0x78, 0x00,
  0x1c, 0x36, 0x63, 0x7f, 0x63, 0x36, 0x1c, 0x00, 0x00, 0x03, 0x06, 0x0c,
  0x1c, 0x36, 0x63, 0x00, 0x00, 0x00, 0x66, 0x66, 0x66, 0x3e, 0x06, 0x06,
  0x00, 0x00, 0x7f, 0x36, 0x36, 0x36, 0x36, 0x00, 0x00, 0x00, 0x3c, 0x66,
  0x66, 0x3e, 0x06, 0x06, 0x00, 0x00, 0x7e, 0x1b, 0x1b, 0x1b, 0x0e, 0x00,
  0x00, 0xce, 0x73, 0x18, 0x18, 0x18, 0x30, 0x00, 0xc0, 0x60, 0x3c, 0x66,
  0x66, 0x3c, 0x06, 0x03, 0x00, 0x67, 0x3c, 0x18, 0x1c, 0x36, 0xe3, 0x00,
  0xc0, 0x60, 0x66, 0x66, 0x66, 0x3c, 0x06, 0x03, 0x00, 0x00, 0x66, 0xc3,
  0xdb, 0xdb, 0x7e, 0x00, 0x00, 0x00, 0x00, 0x00, 0x00, 0x00, 0x00, 0x00,
  0x00, 0x04, 0x06, 0x7f, 0x7f, 0x06, 0x04, 0x00, 0x00, 0x10, 0x30, 0x7f,
  0x7f, 0x30, 0x10, 0x00, 0x80, 0x40, 0x20, 0x10, 0x08, 0x04, 0x02, 0x01,
  0x01, 0x02, 0x04, 0x08, 0x10, 0x20, 0x40, 0x80, 0x00, 0x00, 0x00, 0x00,
  0x00, 0x00, 0x00, 0x00, 0x00, 0x00, 0x00, 0x00, 0xff, 0x00, 0x00, 0x00,
  0x00, 0x00, 0x00, 0xff, 0x00, 0x00, 0x00, 0x00, 0x18, 0x18, 0x18, 0x18,
  0x18, 0x18, 0x18, 0x18, 0x18, 0x18, 0x18, 0x18, 0x18, 0x18, 0x18, 0x18,
  0x18, 0x18, 0x18, 0xff, 0x00, 0x00, 0x00, 0x00, 0x00, 0x00, 0x00, 0x00,
  0xff, 0x18, 0x18, 0x18, 0x18, 0x18, 0x18, 0x18, 0xf8, 0x18, 0x18, 0x18,
  0x18, 0x18, 0x18, 0x18, 0x1f, 0x18, 0x18, 0x18, 0x18, 0x18, 0x18, 0x18,
  0xf8, 0x00, 0x00, 0x00, 0x00, 0x00, 0x00, 0xf8, 0x18, 0x18, 0x18, 0x18,
  0x00, 0x00, 0x00, 0x1f, 0x18, 0x18, 0x18, 0x18, 0x18, 0x18, 0x18, 0x18,
  0x1f, 0x00, 0x00, 0x00, 0x18, 0x18, 0x18, 0x18, 0xf8, 0x04, 0x02, 0x01,
  0x01, 0x02, 0x04, 0xf8, 0x18, 0x18, 0x18, 0x18, 0x80, 0x40, 0x20, 0x1f,
  0x18, 0x18, 0x18, 0x18, 0x18, 0x18, 0x18, 0x18, 0x1f, 0x20, 0x40, 0x80,
  0xff, 0xff, 0xff, 0xff, 0xff, 0xff, 0xff, 0xff, 0xff, 0xff, 0xff, 0xff,
  0xff, 0x00, 0x00, 0x00, 0x00, 0x00, 0x00, 0xff, 0xff, 0xff, 0xff, 0xff,
  0x1f, 0x1f, 0x1f, 0x1f, 0x1f, 0x1f, 0x1f, 0x1f, 0xf8, 0xf8, 0xf8, 0xf8,
  0xf8, 0xf8, 0xf8, 0xf8, 0x18, 0x18, 0x18, 0xff, 0xff, 0xff, 0xff, 0xff,
  0xff, 0xff, 0xff, 0xff, 0xff, 0x18, 0x18, 0x18, 0x1f, 0x1f, 0x1f, 0x1f,
  0xff, 0x1f, 0x1f, 0x1f, 0xf8, 0xf8, 0xf8, 0xf8, 0xff, 0xf8, 0xf8, 0xf8,
  0xf8, 0xf8, 0xf8, 0xf8, 0xf8, 0x00, 0x00, 0x00, 0x00, 0x00, 0x00, 0xf8,
  0xf8, 0xf8, 0xf8, 0xf8, 0x00, 0x00, 0x00, 0x1f, 0x1f, 0x1f, 0x1f, 0x1f,
  0x1f, 0x1f, 0x1f, 0x1f, 0x1f, 0x00, 0x00, 0x00, 0xf8, 0xf8, 0xf8, 0xf8,
  0xf8, 0x04, 0x02, 0x01, 0x01, 0x02, 0x04, 0xf8, 0xf8, 0xf8, 0xf8, 0xf8,
  0x80, 0x40, 0x20, 0x1f, 0x1f, 0x1f, 0x1f, 0x1f, 0x1f, 0x1f, 0x1f, 0x1f,
  0x1f, 0x20, 0x40, 0x80, 0xc0, 0x00, 0x00, 0x00, 0x00, 0x00, 0x00, 0x00,
  0x00, 0x00, 0x00, 0x00, 0x00, 0x00, 0x00, 0xc0, 0x00, 0x00, 0x00, 0x00,
  0x00, 0x00, 0x00, 0x03, 0x03, 0x00, 0x00, 0x00, 0x00, 0x00, 0x00, 0x00,
  0xff, 0x00, 0x00, 0x00, 0x00, 0x00, 0x00, 0x00, 0x00, 0x00, 0x00, 0x00,
  0x00, 0x00, 0x00, 0xff, 0x03, 0x03, 0x03, 0x03, 0x03, 0x03, 0x03, 0x03,
  0xc0, 0xc0, 0xc0, 0xc0, 0xc0, 0xc0, 0xc0, 0xc0, 0x00, 0xff, 0x00, 0x00,
  0x00, 0x00, 0xff, 0x00, 0x00, 0xff, 0x01, 0x01, 0x01, 0x01, 0xff, 0x00,
  0x00, 0xff, 0x03, 0x03, 0x03, 0x03, 0xff, 0x00, 0x00, 0xff, 0x07, 0x07,
  0x07, 0x07, 0xff, 0x00, 0x00, 0xff, 0x0f, 0x0f, 0x0f, 0x0f, 0xff, 0x00,
  0x00, 0xff, 0x1f, 0x1f, 0x1f, 0x1f, 0xff, 0x00, 0x00, 0xff, 0x3f, 0x3f,
  0x3f, 0x3f, 0xff, 0x00, 0x00, 0xff, 0x7f, 0x7f, 0x7f, 0x7f, 0xff, 0x00,
  0x00, 0xff, 0xff, 0xff, 0xff, 0xff, 0xff, 0x00, 0x00, 0x80, 0x80, 0x80,
  0x80, 0x80, 0x80, 0x00, 0x00, 0x01, 0x01, 0x01, 0x01, 0x01, 0x01, 0x00,
  0x81, 0x42, 0x24, 0x18, 0x18, 0x24, 0x42, 0x81, 0x18, 0x18, 0x18, 0x18,
  0xff, 0x18, 0x18, 0x18, 0x18, 0x3c, 0xdb, 0x18, 0x18, 0x18, 0x18, 0x00,
  0x18, 0x18, 0x18, 0x18, 0xdb, 0x3c, 0x18, 0x00, 0x18, 0x3c, 0xdb, 0x18,
  0xdb, 0x3c, 0x18, 0x00, 0xff, 0x81, 0x81, 0x81, 0x81, 0x81, 0x81, 0xff,
  0x3c, 0x66, 0x60, 0x30, 0x18, 0x00, 0x18, 0x00, 0x63, 0x37, 0x1f, 0x0b,
  0x07, 0x0f, 0x1b, 0x00, 0x0f, 0x1b, 0x33, 0x1f, 0x33, 0x1b, 0x0f, 0x00,
  0x08, 0x18, 0x38, 0x6b, 0x0e, 0x0c, 0x08, 0x00, 0x63, 0x77, 0x5d, 0x49,
  0x5d, 0x77, 0x63, 0x00, 0x41, 0x63, 0x77, 0x7f, 0x6b, 0x63, 0x63, 0x00,
  0x5b, 0x6f, 0x37, 0x1b, 0x0f, 0x07, 0x03, 0x00, 0x63, 0x36, 0x1c, 0x08,
  0x1c, 0x36, 0x63, 0x00, 0x67, 0x6f, 0x7b, 0x77, 0x6f, 0x7b, 0x73, 0x00,
  0x0c, 0x0c, 0x0c, 0x0c, 0x0c, 0x0c, 0x0c, 0x00, 0x1c, 0x3e, 0x6b, 0x49,
  0x6b, 0x3e, 0x1c, 0x00, 0x08, 0x08, 0x08, 0x1c, 0x3e, 0x6b, 0x6b, 0x00,
  0x0e, 0x1e, 0x36, 0x66, 0x06, 0x06, 0x06, 0x00, 0x63, 0x77, 0x6b, 0x77,
  0x63, 0x63, 0x63, 0x00, 0x0d, 0x1f, 0x3e, 0x6c, 0x4c, 0x0c, 0x0c, 0x00,
  0x63, 0x37, 0x1d, 0x6b, 0x37, 0x1d, 0x09, 0x00, 0x03, 0x03, 0x03, 0x0b,
  0x1f, 0x37, 0x63, 0x00, 0x06, 0x06, 0x06, 0x3e, 0x66, 0x66, 0x66, 0x00,
  0x0f, 0x1b, 0x33, 0x1b, 0x0f, 0x1b, 0x33, 0x00, 0x03, 0x63, 0x73, 0x7f,
  0x67, 0x63, 0x60, 0x00, 0x08, 0x1c, 0x3e, 0x6f, 0x4d, 0x0c, 0x0c, 0x00,
  0x07, 0x0f, 0x1b, 0x33, 0x63, 0x63, 0x63, 0x00, 0x0c, 0x6d, 0x3e, 0x0c,
  0x0c, 0x0c, 0x0c, 0x00, 0x0f, 0x1b, 0x33, 0x1b, 0x0f, 0x07, 0x03, 0x00,
  0x99, 0xdb, 0x7e, 0x3c, 0x18, 0x18, 0x18, 0x00, 0x07, 0x0b, 0x17, 0x2b,
  0x5b, 0x7b, 0x5b, 0x00, 0x1c, 0x36, 0x63, 0x36, 0x1c, 0x36, 0x63, 0x00,
  0xe7, 0xc3, 0x24, 0xe7, 0xe7, 0xe7, 0xe7, 0xff, 0xe7, 0xe7, 0xe7, 0xe7,
  0x24, 0xc3, 0xe7, 0xff, 0xe7, 0xc3, 0x24, 0xe7, 0x24, 0xc3, 0xe7, 0xff,
  0xc3, 0x99, 0x9f, 0xcf, 0xe7, 0xff, 0xe7, 0xff, 0x1c, 0x36, 0x63, 0x63,
  0x63, 0x36, 0x1c, 0x00, };
