#define accents_width 8
#define accents_height 64
static unsigned char accents_bits[] = {
  0x00, 0x0f, 0x06, 0x3e, 0x66, 0x3e, 0x06, 0x06, 0x07, 0x3e, 0x66, 0x66, 
  0x66, 0x3e, 0x07, 0x00, 0x03, 0x06, 0x3f, 0x18, 0x3e, 0x63, 0x3e, 0x00,
  0x1f, 0x36, 0x66, 0x6f, 0x66, 0x36, 0x1f, 0x00, 0x60, 0x18, 0x00, 0x66, 
  0x66, 0x7c, 0x60, 0x3e, 0x60, 0x18, 0x00, 0x66, 0x3c, 0x18, 0x18, 0x00,
  0x76, 0x1b, 0x1b, 0x7b, 0x1b, 0x1b, 0x76, 0x00, 0x00, 0x00, 0x36, 0x5b, 
  0x3b, 0x1b, 0x76, 0x00, };
