#define zxfnt643_width 8
#define zxfnt643_height 672
static unsigned char zxfnt643_bits[] = {
   0x00, 0x20, 0xf0, 0x20, 0x00, 0x00, 0x80, 0x84, 0x4f, 0x24, 0x20, 0x10,
   0x01, 0x01, 0x02, 0x04, 0x04, 0x08, 0x00, 0x00, 0xf0, 0x0f, 0x00, 0x00,
   0x24, 0x24, 0x24, 0x24, 0x24, 0x24, 0x04, 0x04, 0x0f, 0xf0, 0x40, 0x40,
   0x24, 0x24, 0x24, 0x3c, 0x24, 0x24, 0x02, 0x02, 0xe2, 0x2e, 0x20, 0x20,
   0x40, 0x40, 0x47, 0x74, 0x04, 0x04, 0x12, 0x12, 0xe2, 0x2e, 0x21, 0x21,
   0x48, 0x48, 0x47, 0x74, 0x84, 0x84, 0xff, 0xff, 0xff, 0xff, 0x0f, 0x0f,
   0x70, 0x70, 0x7f, 0x7f, 0x7f, 0x7f, 0x4e, 0x4e, 0xfe, 0xfe, 0xfe, 0xfe,
   0x7f, 0x7f, 0x7f, 0xff, 0x74, 0x74, 0xee, 0xee, 0xee, 0xef, 0x0e, 0x0e,
   0x00, 0x00, 0x7e, 0x7e, 0x7e, 0x7e, 0xe7, 0xe7, 0xe7, 0xe7, 0x10, 0x10,
   0x81, 0x81, 0x7e, 0x7e, 0x7e, 0x7e, 0x87, 0x07, 0x07, 0x07, 0x08, 0x08,
   0x00, 0x00, 0x00, 0x00, 0x00, 0xf8, 0x01, 0x00, 0x00, 0x00, 0x00, 0x00,
   0x10, 0x10, 0x10, 0x10, 0x10, 0x0f, 0x08, 0xf8, 0x08, 0x08, 0xf8, 0x08,
   0x00, 0xff, 0x11, 0x10, 0xff, 0x00, 0x00, 0xff, 0x31, 0x33, 0xff, 0x00,
   0x00, 0xff, 0x77, 0x73, 0xff, 0x00, 0x00, 0xff, 0xff, 0xf7, 0xff, 0x00,
   0x00, 0x18, 0x18, 0x18, 0x18, 0x00, 0x49, 0x49, 0x46, 0xf6, 0x49, 0x49,
   0x22, 0x27, 0x22, 0x22, 0x72, 0x22, 0xf2, 0x97, 0x92, 0x92, 0x97, 0xf2,
   0x53, 0x34, 0x12, 0x30, 0x12, 0x00, 0x23, 0x65, 0x23, 0x35, 0x23, 0x00,
   0x55, 0x77, 0x57, 0x57, 0x55, 0x00, 0x55, 0x73, 0x25, 0x73, 0x51, 0x00,
   0x25, 0x27, 0x25, 0x27, 0x25, 0x00, 0x22, 0x27, 0x27, 0x77, 0x72, 0x00,
   0x72, 0x76, 0x52, 0x52, 0x52, 0x00, 0x02, 0x53, 0x76, 0x52, 0x22, 0x00,
   0x11, 0x11, 0x31, 0x53, 0x55, 0x00, 0x13, 0x55, 0x73, 0x53, 0x45, 0x00,
   0x12, 0x37, 0x52, 0x52, 0x52, 0x00, 0x32, 0x57, 0x37, 0x12, 0x12, 0x00,
   0x17, 0x37, 0x52, 0x32, 0x52, 0x00, 0xd2, 0x85, 0xd2, 0xd5, 0xd5, 0xd0,
   0xdd, 0x8d, 0xdd, 0xdd, 0x88, 0xdd, 0xfc, 0xbb, 0xdd, 0xbf, 0xfd, 0x0f,
   0x00, 0xf0, 0x06, 0xf6, 0x00, 0x00, 0x50, 0x5f, 0x58, 0x5b, 0x5a, 0x5a,
   0x5a, 0x5a, 0xda, 0x1a, 0xfa, 0x0a, 0x0a, 0x0a, 0xfb, 0x08, 0xff, 0x00,
   0xa5, 0xa5, 0xbd, 0xa5, 0xa5, 0xa5, 0x00, 0x60, 0x9f, 0x90, 0x60, 0x00,
   0xf0, 0xf6, 0xff, 0xff, 0xf6, 0xf0, 0xf0, 0xff, 0xf1, 0xfd, 0xf5, 0xf5,
   0xaa, 0x55, 0xaa, 0xf5, 0xfa, 0xf5, 0xaf, 0x5f, 0xaf, 0x05, 0x0a, 0x05,
   0x20, 0x20, 0x50, 0x55, 0x7a, 0x05, 0x47, 0x65, 0x55, 0x62, 0x42, 0x00,
   0x81, 0x83, 0x45, 0x53, 0x21, 0x00, 0x50, 0x05, 0x62, 0x52, 0x65, 0x00,
   0x55, 0x00, 0x52, 0x55, 0x62, 0x00, 0x55, 0x02, 0x75, 0x37, 0x75, 0x00,
   0x05, 0xa0, 0x55, 0xa5, 0x52, 0x00, 0x00, 0xa5, 0x5a, 0xa5, 0x00, 0x00,
   0x55, 0x00, 0x22, 0x25, 0x23, 0x26, 0x55, 0x00, 0x75, 0x36, 0x74, 0x03,
   0x45, 0x20, 0x67, 0x52, 0x67, 0x00, 0x44, 0x22, 0x05, 0x23, 0x26, 0x00,
   0x44, 0x22, 0x02, 0x55, 0x62, 0x00, 0x48, 0x24, 0x55, 0x76, 0x54, 0x03,
   0x44, 0x22, 0x77, 0x23, 0x77, 0x00, 0x84, 0x42, 0x55, 0x55, 0x62, 0x00,
   0x28, 0x44, 0x65, 0x52, 0x62, 0x00, 0x11, 0x22, 0x05, 0x23, 0x26, 0x00,
   0x11, 0x22, 0x02, 0x55, 0x62, 0x00, 0x11, 0x22, 0x75, 0x37, 0x75, 0x03,
   0x11, 0x22, 0x57, 0x52, 0x27, 0x00, 0x22, 0x54, 0x25, 0x55, 0x62, 0x00,
   0x22, 0x55, 0x03, 0x23, 0x26, 0x00, 0x22, 0x55, 0x00, 0x56, 0x66, 0x00,
   0x22, 0x55, 0x72, 0x37, 0x75, 0x00, 0x22, 0x55, 0x77, 0x52, 0x77, 0x00,
   0x62, 0x65, 0x20, 0x55, 0x67, 0x00, 0x06, 0x66, 0x52, 0x57, 0x35, 0x00,
   0x56, 0xa5, 0x65, 0x55, 0x63, 0x00, 0x55, 0xaa, 0x23, 0x55, 0x25, 0x00,
   0x55, 0xaa, 0x52, 0x77, 0x55, 0x00, 0x05, 0x0a, 0xe7, 0xd5, 0x67, 0x00,
   0x0e, 0x65, 0x1f, 0x65, 0x2d, 0x30, 0x16, 0x31, 0x51, 0x56, 0x32, 0x13,
   0x31, 0x52, 0x56, 0x35, 0x12, 0x10, 0x63, 0x15, 0x37, 0x15, 0x73, 0x00,
   0xe0, 0x50, 0xde, 0x5d, 0xe6, 0x00, 0x22, 0x00, 0x22, 0x12, 0x62, 0x00,
   0x0f, 0x69, 0x69, 0x69, 0x69, 0x0f, 0x00, 0x00, 0x00, 0x00, 0x00, 0x00,
   0x00, 0x00, 0x00, 0x00, 0x00, 0x00, 0x00, 0x00, 0x00, 0x00, 0x00, 0x00,
   0x00, 0x00, 0x00, 0x00, 0x00, 0x00, 0x00, 0x00, 0x00, 0x00, 0x00, 0x00,
   0x00, 0x00, 0x00, 0x00, 0x00, 0x00, 0x00, 0x00, 0x00, 0x00, 0x00, 0x00,
   0x00, 0x00, 0x00, 0x00, 0x00, 0x00, 0x00, 0x00, 0x00, 0x00, 0x00, 0x00,
   0x00, 0x00, 0x00, 0x00, 0x00, 0x00, 0x00, 0x00, 0x00, 0x00, 0x00, 0x00,
   0x00, 0x00, 0x00, 0x00, 0x00, 0x00, 0x00, 0x00, 0x00, 0x00, 0x00, 0x00,
   0x00, 0x00, 0x00, 0x00, 0x00, 0x00, 0x00, 0x00, 0x00, 0x00, 0x00, 0x00 };
